<?xml version="1.0" encoding="UTF-8"?>
<svg width="24px" height="24px" viewBox="0 0 24 24" version="1.1" xmlns="http://www.w3.org/2000/svg">
    <g stroke="none" stroke-width="1" fill="none" fill-rule="evenodd">
        <path d="M19,3 L5,3 C3.9,3 3,3.9 3,5 L3,19 C3,20.1 3.9,21 5,21 L19,21 C20.1,21 21,20.1 21,19 L21,5 C21,3.9 20.1,3 19,3 Z" fill="#E74C3C"/>
        <path d="M9.5,11.5 C9.5,12.3 8.8,13 8,13 L7,13 L7,15 L5.5,15 L5.5,9 L8,9 C8.8,9 9.5,9.7 9.5,10.5 L9.5,11.5 Z M8,10.5 L7,10.5 L7,11.5 L8,11.5 L8,10.5 Z" fill="#FFFFFF"/>
        <path d="M13.5,15 L12,15 L12,9 L13.5,9 C15.4,9 17,10.6 17,12 C17,13.4 15.4,15 13.5,15 Z M13.5,10.5 L13.5,13.5 C14.6,13.5 15.5,12.6 15.5,12 C15.5,11.4 14.6,10.5 13.5,10.5 Z" fill="#FFFFFF"/>
    </g>
</svg>
