<?xml version="1.0" encoding="UTF-8"?>
<svg width="400" height="500" viewBox="0 0 400 500" xmlns="http://www.w3.org/2000/svg">
  <!-- Background -->
  <rect x="0" y="0" width="400" height="500" fill="white" stroke="#DDD" stroke-width="2"/>
  
  <!-- Header Area -->
  <rect x="40" y="40" width="320" height="50" fill="#f9f9f9"/>
  <text x="50" y="70" font-family="Arial, sans-serif" font-size="18" font-weight="bold" fill="#333">PRIVATE PLACEMENT MEMORANDUM</text>
  
  <!-- Line -->
  <line x1="40" y1="120" x2="360" y2="120" stroke="#ddd" stroke-width="2"/>
  
  <!-- Title Area -->
  <text x="40" y="150" font-family="Arial, sans-serif" font-size="14" font-weight="bold" fill="#555">PHOENIXBIRD CAPITAL, LLC</text>
  
  <!-- Content Lines -->
  <rect x="40" y="170" width="320" height="10" fill="#f2f2f2"/>
  <rect x="40" y="190" width="320" height="10" fill="#f2f2f2"/>
  <rect x="40" y="210" width="320" height="10" fill="#f2f2f2"/>
  <rect x="40" y="230" width="280" height="10" fill="#f2f2f2"/>
  
  <rect x="40" y="260" width="320" height="10" fill="#f2f2f2"/>
  <rect x="40" y="280" width="320" height="10" fill="#f2f2f2"/>
  <rect x="40" y="300" width="300" height="10" fill="#f2f2f2"/>
  
  <rect x="40" y="330" width="320" height="10" fill="#f2f2f2"/>
  <rect x="40" y="350" width="280" height="10" fill="#f2f2f2"/>
  <rect x="40" y="370" width="320" height="10" fill="#f2f2f2"/>
  <rect x="40" y="390" width="220" height="10" fill="#f2f2f2"/>
  
  <!-- PDF Icon in corner -->
  <rect x="320" y="430" width="40" height="40" rx="5" fill="#f40f02"/>
  <text x="328" y="457" font-family="Arial, sans-serif" font-size="14" font-weight="bold" fill="white">PDF</text>
</svg>
