<?xml version="1.0" encoding="UTF-8"?>
<svg width="100" height="100" viewBox="0 0 100 100" xmlns="http://www.w3.org/2000/svg">
  <defs>
    <linearGradient id="phoenixGradient" x1="0%" y1="0%" x2="100%" y2="100%">
      <stop offset="0%" style="stop-color:#FFD700"/>
      <stop offset="100%" style="stop-color:#FF4500"/>
    </linearGradient>
  </defs>
  <g transform="translate(50,50)">
    <!-- Phoenix Body -->
    <path d="M0,-40 C10,-35 20,-25 25,-15 C30,-5 30,5 25,15 C20,25 10,35 0,40
             C-10,35 -20,25 -25,15 C-30,5 -30,-5 -25,-15 C-20,-25 -10,-35 0,-40"
          fill="url(#phoenixGradient)" stroke="#333" stroke-width="2"/>
    
    <!-- Wings -->
    <path d="M-25,0 C-40,-20 -45,-25 -45,-10 C-45,0 -35,20 -25,30"
          fill="none" stroke="#FF4500" stroke-width="3"/>
    <path d="M25,0 C40,-20 45,-25 45,-10 C45,0 35,20 25,30"
          fill="none" stroke="#FF4500" stroke-width="3"/>
    
    <!-- Head -->
    <circle cx="0" cy="-25" r="8" fill="#333"/>
    
    <!-- Beak -->
    <path d="M0,-25 L8,-20 L0,-15 L-8,-20 Z" fill="#FFD700"/>
  </g>
</svg>
