<?xml version="1.0" encoding="UTF-8"?>
<svg width="200" height="200" viewBox="0 0 200 200" xmlns="http://www.w3.org/2000/svg">
    <defs>
        <linearGradient id="phoenixGradient" x1="0%" y1="0%" x2="100%" y2="100%">
            <stop offset="0%" style="stop-color:#FF4B2B"/>
            <stop offset="100%" style="stop-color:#FF0000"/>
        </linearGradient>
    </defs>
    
    <!-- Phoenix Bird -->
    <path d="M100,30 
             C120,50 140,60 160,50
             C140,70 130,90 140,110
             C120,100 110,120 100,140
             C90,120 80,100 60,110
             C70,90 60,70 40,50
             C60,60 80,50 100,30Z" 
          fill="url(#phoenixGradient)"/>
    
    <!-- Wings -->
    <path d="M100,60
             C130,40 150,50 170,40
             C150,60 140,80 150,100
             C130,90 120,100 100,110
             C80,100 70,90 50,100
             C60,80 50,60 30,40
             C50,50 70,40 100,60Z" 
          fill="#FF6B45" fill-opacity="0.7"/>
</svg>
